<svg width="139" height="30" viewBox="0 0 139 30" fill="none" xmlns="http://www.w3.org/2000/svg">
<path d="M119.068 0.401367L123.956 9.05604H124.197L129.165 0.401367H137.699L129.005 14.906L138.02 29.4106H129.285L124.197 20.6357H123.956L118.908 29.4106H110.213L119.148 14.906L110.493 0.401367H119.068Z" fill="black"/>
<path d="M100.088 0.401367H107.7V19.033C107.72 25.6041 102.672 29.7511 95.2394 29.7712C87.7868 29.7511 82.7984 25.6041 82.8184 19.033V0.401367H90.4313V18.3518C90.4313 21.1566 92.4347 23.16 95.2394 23.16C98.0842 23.16 100.068 21.1566 100.088 18.3518V0.401367Z" fill="black"/>
<path d="M59.7129 29.4106H51.459L61.1153 0.401367H71.4928L81.1091 29.4106H72.8952L71.1523 23.7209H61.4358L59.7129 29.4106ZM63.1988 17.9511H69.3893L66.4042 8.21462H66.1638L63.1988 17.9511Z" fill="black"/>
<path d="M30.3203 29.4106V0.401367H37.9332V23.2401H49.7531V29.4106H30.3203Z" fill="black"/>
<path d="M19.0722 9.93685C18.5513 7.85332 16.8084 6.65128 14.2641 6.65128C10.2173 6.65128 7.85327 9.67641 7.85327 14.8652C7.85327 20.074 10.057 23.1392 14.224 23.1593C17.8301 23.1392 19.7133 21.4363 19.7534 18.7518H14.3843V13.3026H27.1258V17.2693C27.1258 25.1627 21.7167 29.8105 14.1439 29.8105C5.72968 29.8105 0.0200339 24.1409 0 14.9453C0.0200339 5.40917 6.29063 0 14.1038 0C20.9153 0 26.1642 4.127 26.8053 9.93685H19.0722Z" fill="black"/>
</svg>
