<svg width="140" height="140" viewBox="0 0 140 140" fill="none" xmlns="http://www.w3.org/2000/svg">
<rect width="140" height="140" fill="white"/>
<path d="M15.1279 76.9545C98.1899 76.0296 111.88 45.0006 111.88 22.9365C115.418 49.5887 123.851 80.8757 92.5362 122.295C108.735 67.3348 76.5456 84.3543 15.1279 76.9545Z" fill="black"/>
<path d="M80.5449 72.6638C81.3813 74.7853 81.7178 77.071 81.5283 79.3436C81.3388 81.6161 80.6284 83.8145 79.4521 85.7682C78.2759 87.7219 76.6654 89.3784 74.7456 90.6092C72.8258 91.8401 70.6483 92.6122 68.382 92.8656C66.1157 93.1191 63.8214 92.8471 61.6772 92.0708C59.5329 91.2945 57.5963 90.0347 56.0175 88.3891C54.4387 86.7435 53.2602 84.7564 52.5733 82.5819C51.8864 80.4073 51.7097 78.1038 52.0568 75.8499L60.8866 77.2096C60.7484 78.1073 60.8188 79.0248 61.0924 79.891C61.366 80.7571 61.8354 81.5486 62.4642 82.204C63.0931 82.8594 63.8644 83.3612 64.7185 83.6704C65.5726 83.9796 66.4864 84.088 67.3891 83.987C68.2917 83.8861 69.159 83.5785 69.9237 83.0883C70.6884 82.598 71.3298 81.9383 71.7983 81.1601C72.2668 80.3819 72.5498 79.5063 72.6253 78.6011C72.7008 77.696 72.5667 76.7856 72.2336 75.9406L80.5449 72.6638Z" fill="black"/>
</svg>
