<svg width="140" height="140" viewBox="0 0 140 140" fill="none" xmlns="http://www.w3.org/2000/svg">
<rect width="140" height="140" rx="70" fill="white"/>
<path d="M9.32324 76.9545C92.3852 76.0296 106.075 45.0006 106.075 22.9365C109.613 49.5887 118.046 80.8757 86.7315 122.295C102.93 67.3348 70.7409 84.3543 9.32324 76.9545Z" fill="black"/>
<path d="M74.7402 72.6638C75.5767 74.7853 75.9132 77.071 75.7236 79.3436C75.5341 81.6161 74.8237 83.8145 73.6474 85.7682C72.4712 87.7219 70.8607 89.3784 68.9409 90.6092C67.0212 91.8401 64.8437 92.6122 62.5773 92.8656C60.311 93.1191 58.0167 92.8471 55.8725 92.0708C53.7282 91.2945 51.7916 90.0347 50.2128 88.3891C48.634 86.7435 47.4555 84.7564 46.7686 82.5819C46.0818 80.4073 45.905 78.1038 46.2521 75.8499L55.082 77.2096C54.9437 78.1073 55.0141 79.0248 55.2877 79.891C55.5613 80.7571 56.0307 81.5486 56.6595 82.204C57.2884 82.8594 58.0597 83.3612 58.9138 83.6704C59.7679 83.9796 60.6817 84.088 61.5844 83.987C62.4871 83.8861 63.3544 83.5785 64.119 83.0883C64.8837 82.598 65.5251 81.9383 65.9936 81.1601C66.4621 80.3819 66.7451 79.5063 66.8206 78.6011C66.8961 77.696 66.762 76.7856 66.4289 75.9406L74.7402 72.6638Z" fill="black"/>
</svg>
